<?xml version="1.0" encoding="utf-8"?>
<!-- Generator: Adobe Illustrator 23.1.0, SVG Export Plug-In . SVG Version: 6.00 Build 0)  -->
<svg version="1.1" id="Layer_1" xmlns="http://www.w3.org/2000/svg" xmlns:xlink="http://www.w3.org/1999/xlink" x="0px" y="0px"
	 viewBox="0 0 32 32" style="enable-background:new 0 0 32 32;" xml:space="preserve">
<style type="text/css">
	.st0{fill:#FFFFFF;}
</style>
<g id="Google_Ads_AdWords">
	<g>
		<path class="st0" d="M2.1,23.3c-0.1,0-0.2,0-0.2-0.1c-0.2-0.1-0.3-0.4-0.2-0.7L9.3,8.8C9.4,8.6,9.7,8.5,10,8.6
			c0.2,0.1,0.3,0.4,0.2,0.7L2.5,23.1C2.4,23.2,2.2,23.3,2.1,23.3z"/>
		<path class="st0" d="M9.9,27.7c-0.1,0-0.2,0-0.2-0.1c-0.2-0.1-0.3-0.4-0.2-0.7l4.8-8.6c0.1-0.2,0.4-0.3,0.7-0.2
			c0.2,0.1,0.3,0.4,0.2,0.7l-4.8,8.6C10.3,27.6,10.1,27.7,9.9,27.7z"/>
	</g>
	<g>
		<g>
			<g>
				<path class="st0" d="M15.7,15.8L9.5,26.9C8.8,28.2,7.5,29,6,29c-0.7,0-1.3-0.2-1.9-0.5c-1.9-1.1-2.6-3.5-1.6-5.4l7.6-13.6
					c0.1-0.2,0-0.5-0.2-0.7c-0.2-0.1-0.5,0-0.7,0.2L1.6,22.6C0.3,25,1.2,28,3.6,29.4C4.3,29.8,5.2,30,6,30c1.8,0,3.5-1,4.4-2.6
					l5.9-10.7L15.7,15.8z"/>
			</g>
		</g>
		<g>
			<path class="st0" d="M6,30c-2.8,0-5-2.2-5-5s2.2-5,5-5s5,2.2,5,5S8.8,30,6,30z M6,21c-2.2,0-4,1.8-4,4s1.8,4,4,4s4-1.8,4-4
				S8.2,21,6,21z"/>
		</g>
		<g>
			<g>
				<path class="st0" d="M26,30c-1.8,0-3.5-1-4.4-2.6l-10-18C10.3,7,11.2,4,13.6,2.6C14.3,2.2,15.2,2,16,2c1.8,0,3.5,1,4.4,2.6
					l10,18c1.3,2.4,0.5,5.5-1.9,6.8C27.7,29.8,26.8,30,26,30z M16,3c-0.7,0-1.3,0.2-1.9,0.5c-1.9,1.1-2.6,3.5-1.6,5.4l10,18
					c0.7,1.3,2,2.1,3.5,2.1c0.7,0,1.3-0.2,1.9-0.5c1.9-1.1,2.6-3.5,1.6-5.4l-10-18C18.8,3.8,17.5,3,16,3z"/>
			</g>
		</g>
	</g>
</g>
</svg>
