<svg xmlns="http://www.w3.org/2000/svg" version="1.1" xmlns:xlink="http://www.w3.org/1999/xlink" xmlns:svgjs="http://svgjs.dev/svgjs" width="1000" height="1000" viewBox="0 0 1000 1000"><rect width="1000" height="1000" fill="#0c1d36"></rect><g transform="matrix(0.7,0,0,0.7,150,281.25)"><svg viewBox="0 0 576 360" data-background-color="#0c1d36" preserveAspectRatio="xMidYMid meet" height="625" width="1000" xmlns="http://www.w3.org/2000/svg" xmlns:xlink="http://www.w3.org/1999/xlink"><g id="tight-bounds" transform="matrix(1,0,0,1,0,0)"><svg viewBox="0 0 576 360" height="360" width="576"><g><svg></svg></g><g><svg viewBox="0 0 576 360" height="360" width="576"><g><path xmlns="http://www.w3.org/2000/svg" d="M132.115 90l155.885-90 155.885 90v180l-155.885 90-155.885-90zM146.725 261.565l141.275 81.566 141.275-81.566v-163.13l-141.275-81.566-141.275 81.566z" fill="#f9cc0b" fill-rule="nonzero" stroke="none" stroke-width="1" stroke-linecap="butt" stroke-linejoin="miter" stroke-miterlimit="10" stroke-dasharray="" stroke-dashoffset="0" font-family="none" font-weight="none" font-size="none" text-anchor="none" style="mix-blend-mode: normal" data-fill-palette-color="tertiary"></path></g><g transform="matrix(1,0,0,1,200.38507301243916,99)"><svg viewBox="0 0 175.22985397512167 162" height="162" width="175.22985397512167"><g><svg viewBox="0 0 175.22985397512167 162" height="162" width="175.22985397512167"><g><svg viewBox="0 0 175.22985397512167 162" height="162" width="175.22985397512167"><g><svg viewBox="0 0 175.22985397512167 162" height="162" width="175.22985397512167"><g id="textblocktransform"><svg viewBox="0 0 175.22985397512167 162" height="162" width="175.22985397512167" id="textblock"><g><svg viewBox="0 0 175.22985397512167 162" height="162" width="175.22985397512167"><g transform="matrix(1,0,0,1,0,0)"><svg width="175.22985397512167" viewBox="0.9300000667572021 -42.189998626708984 48.82999801635742 45.13999938964844" height="162" data-palette-color="#f9cc0b"><path d="M20.43-12.87L27.1-12.87 26.66-11.11 19.97-11.11 20.43-12.87ZM19.53-9.35L26.22-9.35 25.78-7.59 19.07-7.59 19.53-9.35ZM18.6-5.79L25.32-5.79 24.9-4.08 18.16-4.08 18.6-5.79ZM38.26-12.87L44.43-12.87 43.99-11.11 37.79-11.11 38.26-12.87ZM37.35-9.35L43.55-9.35 43.12-7.59 36.89-7.59 37.35-9.35ZM36.43-5.79L42.65-5.79 42.24-4.08 35.99-4.08 36.43-5.79ZM3.2-12.87L9.38-12.87 8.94-11.11 2.73-11.11 3.2-12.87ZM2.29-9.35L8.5-9.35 8.06-7.59 1.83-7.59 2.29-9.35ZM1.37-5.79L7.59-5.79 7.18-4.08 0.93-4.08 1.37-5.79ZM25.76-34.38L32.42-34.38 31.98-32.62 25.29-32.62 25.76-34.38ZM24.85-30.86L31.54-30.86 31.1-29.1 24.39-29.1 24.85-30.86ZM23.93-27.29L30.64-27.29 30.22-25.59 23.49-25.59 23.93-27.29ZM43.58-34.38L49.76-34.38 49.32-32.62 43.12-32.62 43.58-34.38ZM42.68-30.86L48.88-30.86 48.44-29.1 42.21-29.1 42.68-30.86ZM41.75-27.29L47.97-27.29 47.56-25.59 41.31-25.59 41.75-27.29ZM6.32 2.95L17.63-42.19 19.46-42.19 8.15 2.95 6.32 2.95ZM8.52-34.38L14.7-34.38 14.26-32.62 8.06-32.62 8.52-34.38ZM7.62-30.86L13.82-30.86 13.38-29.1 7.15-29.1 7.62-30.86ZM6.69-27.29L12.92-27.29 12.5-25.59 6.25-25.59 6.69-27.29ZM13.62 2.95L24.95-42.19 26.76-42.19 15.43 2.95 13.62 2.95ZM9.99 2.95L21.29-42.19 23.12-42.19 11.79 2.95 9.99 2.95ZM31.37 2.95L42.7-42.19 44.51-42.19 33.18 2.95 31.37 2.95ZM27.73 2.95L39.04-42.19 40.87-42.19 29.54 2.95 27.73 2.95ZM24.07 2.95L35.38-42.19 37.21-42.19 25.9 2.95 24.07 2.95Z" opacity="1" transform="matrix(1,0,0,1,0,0)" fill="#f9cc0b" class="undefined-text-0" data-fill-palette-color="primary" id="text-0"></path></svg></g></svg></g></svg></g></svg></g><g></g></svg></g></svg></g></svg></g></svg></g><defs></defs></svg><rect width="576" height="360" fill="none" stroke="none" visibility="hidden"></rect></g></svg></g></svg>