<svg xmlns="http://www.w3.org/2000/svg" version="1.1" xmlns:xlink="http://www.w3.org/1999/xlink" xmlns:svgjs="http://svgjs.dev/svgjs" width="1000" height="699" viewBox="0 0 1000 699"><g transform="matrix(1,0,0,1,0.7020479394790868,0.28299595141697864)"><svg viewBox="0 0 353 247" data-background-color="#89939e" preserveAspectRatio="xMidYMid meet" height="699" width="1000" xmlns="http://www.w3.org/2000/svg" xmlns:xlink="http://www.w3.org/1999/xlink"><g id="tight-bounds" transform="matrix(1,0,0,1,-0.24782292263611794,-0.09999999999999432)"><svg viewBox="0 0 353.49564584527224 247.2" height="247.2" width="353.49564584527224"><g><svg viewBox="0 0 353.49564584527224 247.2" height="247.2" width="353.49564584527224"><g><svg viewBox="0 0 353.49564584527224 247.2" height="247.2" width="353.49564584527224"><g><svg viewBox="0 0 353.49564584527224 247.2" height="247.2" width="353.49564584527224"><g id="textblocktransform"><svg viewBox="0 0 353.49564584527224 247.2" height="247.2" width="353.49564584527224" id="textblock"><g><svg viewBox="0 0 353.49564584527224 247.2" height="247.2" width="353.49564584527224"><rect width="353.49564584527224" height="247.2" x="0" y="0" opacity="1" fill="#000000" data-fill-palette-color="tertiary"></rect><g transform="matrix(1,0,0,1,23.607599999999998,23.607599999999998)"><svg width="306.28044584527225" viewBox="1.850000023841858 -34.900001525878906 53.45000076293945 34.900001525878906" height="199.9848" data-palette-color="#89939e"><path d="M28.15-33.25L15.9-33.25 15.9 0 14.1 0 14.1-33.25 1.85-33.25 1.85-34.9 28.15-34.9 28.15-33.25ZM53.5 0L53.5-16.9 36.5-16.9 36.5 0 34.7 0 34.7-34.9 36.5-34.9 36.5-18.5 53.5-18.5 53.5-34.9 55.3-34.9 55.3 0 53.5 0Z" opacity="1" transform="matrix(1,0,0,1,0,0)" fill="#89939e" class="undefined-text-0" data-fill-palette-color="quaternary" id="text-0"></path></svg></g></svg></g></svg></g></svg></g><g></g></svg></g></svg></g><defs></defs></svg><rect width="353.49564584527224" height="247.2" fill="none" stroke="none" visibility="hidden"></rect></g></svg></g></svg>