<?xml version="1.0" encoding="utf-8"?>
<!-- Generator: Adobe Illustrator 23.1.0, SVG Export Plug-In . SVG Version: 6.00 Build 0)  -->
<svg version="1.1" id="Layer_1" xmlns="http://www.w3.org/2000/svg" xmlns:xlink="http://www.w3.org/1999/xlink" x="0px" y="0px"
	 viewBox="0 0 128 128" style="enable-background:new 0 0 128 128;" xml:space="preserve">
<style type="text/css">
	.st0{fill:none;}
	.st1{fill-rule:evenodd;clip-rule:evenodd;fill:#FFFFFF;}
	.st2{fill-rule:evenodd;clip-rule:evenodd;fill:none;}
	.st3{fill:#FFFFFF;}
</style>
<path class="st0" d="M95.8,64.8c0,17.6-14.2,31.8-31.8,31.8S32.2,82.3,32.2,64.8S46.4,33,64,33S95.8,47.2,95.8,64.8z"/>
<path class="st1" d="M97.8,64.8c0,18.7-15.1,33.8-33.8,33.8S30.2,83.4,30.2,64.8S45.3,31,64,31S97.8,46.1,97.8,64.8z M64,96.6
	c17.6,0,31.8-14.2,31.8-31.8S81.6,33,64,33S32.2,47.2,32.2,64.8S46.4,96.6,64,96.6z"/>
<path class="st2" d="M60,94.6c17.6,0,31.8-14.2,31.8-31.8c0-11.7-6.3-21.8-15.6-27.4c11.5,4.8,19.6,16.1,19.6,29.4
	c0,17.6-14.2,31.8-31.8,31.8c-5.9,0-11.4-1.6-16.2-4.4C51.6,93.7,55.7,94.6,60,94.6z"/>
<path class="st1" d="M27,43c3.2,10.4,9.9,22.7,19.2,34.8S65.9,99.4,75.1,105c4.6,2.8,9,4.8,13,5.5c4,0.7,7.7,0.3,10.5-1.9
	c2.8-2.2,4.2-5.7,4.4-9.7c0.3-4-0.5-8.8-2.1-13.9c-3.2-10.3-9.9-22.7-19.2-34.8c-9.3-12-19.7-21.6-28.9-27.2c-4.6-2.8-9-4.8-13-5.5
	c-4-0.7-7.7-0.3-10.5,1.9s-4.2,5.7-4.4,9.7C24.6,33.1,25.4,37.9,27,43z M47.8,76.6C29.4,52.8,21.6,27.9,30.6,20.9
	s31.2,6.7,49.6,30.5c18.5,23.8,26.2,48.7,17.2,55.6C88.5,114,66.3,100.3,47.8,76.6z"/>
<path class="st1" d="M105.6,52.2c-5.5,9.5-14.8,20.2-26.6,30C67.1,91.9,54.8,99,44.4,102.5c-5.2,1.8-10.1,2.7-14.2,2.6
	c-4.2-0.2-8-1.4-10.6-4.5c-2.5-3.1-3.1-7.1-2.4-11.3c0.6-4.1,2.5-8.7,5.2-13.5c5.5-9.5,14.8-20.2,26.6-30
	C60.9,36.1,73.2,29,83.6,25.5c5.2-1.8,10.1-2.7,14.2-2.6c4.2,0.2,8,1.4,10.6,4.5c2.5,3.1,3.1,7.1,2.4,11.3
	C110.2,42.8,108.3,47.4,105.6,52.2z M77,79.8c23.2-19.1,36.2-41.7,29-50.5C98.9,20.6,74.2,29,51,48.2s-36.2,41.7-29,50.5
	C29.1,107.4,53.8,99,77,79.8z"/>
<path class="st3" d="M111.6,43c0,2.1-1.7,3.8-3.8,3.8c-2.1,0-3.8-1.7-3.8-3.8c0-2.1,1.7-3.8,3.8-3.8C109.9,39.2,111.6,40.9,111.6,43
	z"/>
<path class="st3" d="M55.6,46.8c0,2.1-1.7,3.8-3.8,3.8c-2.1,0-3.8-1.7-3.8-3.8c0-2.1,1.7-3.8,3.8-3.8C53.9,43,55.6,44.7,55.6,46.8z"
	/>
<path class="st3" d="M55,97.3c0,3.3-2.6,5.9-5.9,5.9c-3.3,0-5.9-2.6-5.9-5.9c0-3.3,2.6-5.9,5.9-5.9C52.3,91.4,55,94,55,97.3z"/>
</svg>
